<?xml version="1.0" standalone="no"?>
<!DOCTYPE svg PUBLIC "-//W3C//DTD SVG 20010904//EN"
 "http://www.w3.org/TR/2001/REC-SVG-20010904/DTD/svg10.dtd">
<svg version="1.0" xmlns="http://www.w3.org/2000/svg"
 width="260.000000pt" height="260.000000pt" viewBox="0 0 260.000000 260.000000"
 preserveAspectRatio="xMidYMid meet">
<metadata>
Created by potrace 1.11, written by Peter Selinger 2001-2013
</metadata>
<g transform="translate(0.000000,260.000000) scale(0.100000,-0.100000)"
fill="#000000" stroke="none">
<path d="M995 2358 c-339 -28 -646 -217 -833 -513 -70 -111 -135 -294 -149
-419 -12 -106 -7 -285 10 -361 74 -320 242 -557 514 -723 48 -29 169 -83 218
-98 136 -40 196 -49 345 -48 122 1 156 5 260 31 350 87 650 370 761 716 20 62
21 66 39 157 13 69 16 222 6 314 -24 218 -145 465 -312 633 l-56 56 69 29
c223 97 352 128 536 129 88 1 107 -9 107 -53 0 -41 27 -48 57 -14 27 32 37 67
29 100 -5 20 -16 27 -64 37 -31 6 -77 12 -102 11 -63 0 -214 -28 -317 -58 -83
-24 -289 -101 -342 -129 -22 -11 -30 -9 -80 25 -203 137 -445 199 -696 178z"/>
</g>
</svg>
